<svg width="178" height="103" viewBox="0 0 178 103" fill="none" xmlns="http://www.w3.org/2000/svg">
<path d="M78.136 78V60.96H89.32V62.448H79.816V68.712H87.832V70.104H79.816V78H78.136ZM88.3545 74.4C88.3545 73.616 88.5785 72.944 89.0265 72.384C89.4745 71.808 90.0905 71.368 90.8745 71.064C91.6745 70.744 92.5945 70.584 93.6345 70.584C94.2425 70.584 94.8745 70.632 95.5305 70.728C96.1865 70.824 96.7705 70.968 97.2825 71.16V70.104C97.2825 69.048 96.9705 68.208 96.3465 67.584C95.7225 66.96 94.8585 66.648 93.7545 66.648C93.0825 66.648 92.4185 66.776 91.7625 67.032C91.1225 67.272 90.4505 67.632 89.7465 68.112L89.1225 66.96C89.9385 66.4 90.7385 65.984 91.5225 65.712C92.3065 65.424 93.1065 65.28 93.9225 65.28C95.4585 65.28 96.6745 65.72 97.5705 66.6C98.4665 67.48 98.9145 68.696 98.9145 70.248V76.032C98.9145 76.256 98.9625 76.424 99.0585 76.536C99.1545 76.632 99.3065 76.688 99.5145 76.704V78C99.3385 78.016 99.1865 78.032 99.0585 78.048C98.9305 78.064 98.8345 78.064 98.7705 78.048C98.3705 78.032 98.0665 77.904 97.8585 77.664C97.6505 77.424 97.5385 77.168 97.5225 76.896L97.4985 75.984C96.9385 76.704 96.2105 77.264 95.3145 77.664C94.4185 78.048 93.5065 78.24 92.5785 78.24C91.7785 78.24 91.0505 78.072 90.3945 77.736C89.7545 77.384 89.2505 76.92 88.8825 76.344C88.5305 75.752 88.3545 75.104 88.3545 74.4ZM96.7305 75.36C96.9065 75.136 97.0425 74.92 97.1385 74.712C97.2345 74.504 97.2825 74.32 97.2825 74.16V72.336C96.7385 72.128 96.1705 71.968 95.5785 71.856C95.0025 71.744 94.4185 71.688 93.8265 71.688C92.6585 71.688 91.7145 71.92 90.9945 72.384C90.2745 72.848 89.9145 73.48 89.9145 74.28C89.9145 74.744 90.0345 75.184 90.2745 75.6C90.5145 76 90.8665 76.336 91.3305 76.608C91.7945 76.864 92.3385 76.992 92.9625 76.992C93.7465 76.992 94.4745 76.84 95.1465 76.536C95.8345 76.232 96.3625 75.84 96.7305 75.36ZM120.041 78H118.409V71.016C118.409 69.56 118.177 68.488 117.713 67.8C117.249 67.112 116.561 66.768 115.649 66.768C114.705 66.768 113.857 67.104 113.105 67.776C112.369 68.448 111.849 69.312 111.545 70.368V78H109.913V71.016C109.913 69.544 109.689 68.472 109.241 67.8C108.793 67.112 108.105 66.768 107.177 66.768C106.249 66.768 105.409 67.096 104.657 67.752C103.905 68.408 103.377 69.272 103.073 70.344V78H101.441V65.496H102.929V68.328C103.457 67.352 104.129 66.6 104.945 66.072C105.777 65.544 106.697 65.28 107.705 65.28C108.745 65.28 109.585 65.576 110.225 66.168C110.865 66.76 111.257 67.536 111.401 68.496C111.977 67.44 112.665 66.64 113.465 66.096C114.281 65.552 115.201 65.28 116.225 65.28C116.929 65.28 117.521 65.408 118.001 65.664C118.497 65.92 118.889 66.288 119.177 66.768C119.481 67.232 119.697 67.8 119.825 68.472C119.969 69.128 120.041 69.864 120.041 70.68V78ZM122.495 78V65.496H124.127V78H122.495ZM122.495 62.88V60.48H124.127V62.88H122.495ZM126.794 60.48H128.426V75.168C128.426 75.792 128.538 76.2 128.762 76.392C128.986 76.584 129.258 76.68 129.578 76.68C129.866 76.68 130.154 76.648 130.442 76.584C130.73 76.52 130.978 76.456 131.186 76.392L131.474 77.712C131.17 77.84 130.794 77.944 130.346 78.024C129.914 78.104 129.538 78.144 129.218 78.144C128.482 78.144 127.89 77.928 127.442 77.496C127.01 77.064 126.794 76.472 126.794 75.72V60.48ZM132.583 81.84C132.807 81.856 133.023 81.864 133.23 81.864C133.439 81.88 133.591 81.872 133.687 81.84C133.879 81.808 134.063 81.696 134.239 81.504C134.415 81.312 134.623 80.944 134.863 80.4C135.103 79.856 135.439 79.056 135.871 78L130.423 65.496H132.151L136.735 76.32L140.959 65.496H142.591L136.111 81.624C135.999 81.928 135.831 82.208 135.607 82.464C135.383 82.736 135.103 82.944 134.767 83.088C134.447 83.248 134.047 83.336 133.567 83.352C133.423 83.368 133.271 83.368 133.111 83.352C132.967 83.352 132.791 83.336 132.583 83.304V81.84ZM88.096 85.152C87.856 84.88 87.576 84.64 87.256 84.432C86.936 84.208 86.576 84.016 86.176 83.856C85.776 83.696 85.344 83.568 84.88 83.472C84.432 83.376 83.952 83.328 83.44 83.328C81.952 83.328 80.856 83.616 80.152 84.192C79.464 84.752 79.12 85.52 79.12 86.496C79.12 87.168 79.28 87.696 79.6 88.08C79.936 88.464 80.456 88.776 81.16 89.016C81.864 89.256 82.76 89.504 83.848 89.76C85.064 90.016 86.112 90.32 86.992 90.672C87.872 91.024 88.552 91.504 89.032 92.112C89.512 92.704 89.752 93.512 89.752 94.536C89.752 95.32 89.6 96 89.296 96.576C88.992 97.152 88.568 97.632 88.024 98.016C87.48 98.4 86.832 98.688 86.08 98.88C85.328 99.056 84.504 99.144 83.608 99.144C82.728 99.144 81.88 99.056 81.064 98.88C80.264 98.688 79.504 98.416 78.784 98.064C78.064 97.696 77.392 97.232 76.768 96.672L77.608 95.304C77.912 95.624 78.272 95.928 78.688 96.216C79.12 96.488 79.592 96.736 80.104 96.96C80.632 97.184 81.192 97.36 81.784 97.488C82.392 97.6 83.016 97.656 83.656 97.656C85.016 97.656 86.072 97.408 86.824 96.912C87.592 96.416 87.976 95.68 87.976 94.704C87.976 94 87.784 93.44 87.4 93.024C87.016 92.592 86.44 92.24 85.672 91.968C84.904 91.696 83.96 91.432 82.84 91.176C81.656 90.904 80.656 90.6 79.84 90.264C79.024 89.928 78.408 89.488 77.992 88.944C77.592 88.384 77.392 87.648 77.392 86.736C77.392 85.68 77.648 84.792 78.16 84.072C78.688 83.336 79.408 82.784 80.32 82.416C81.232 82.032 82.28 81.84 83.464 81.84C84.216 81.84 84.912 81.92 85.552 82.08C86.208 82.224 86.808 82.44 87.352 82.728C87.912 83.016 88.432 83.376 88.912 83.808L88.096 85.152ZM96.7781 99.24C95.8821 99.24 95.0501 99.072 94.2821 98.736C93.5141 98.384 92.8501 97.912 92.2901 97.32C91.7301 96.712 91.2901 96.016 90.9701 95.232C90.6661 94.448 90.5141 93.608 90.5141 92.712C90.5141 91.544 90.7781 90.472 91.3061 89.496C91.8501 88.52 92.5941 87.744 93.5381 87.168C94.4821 86.576 95.5541 86.28 96.7541 86.28C97.9861 86.28 99.0581 86.576 99.9701 87.168C100.898 87.76 101.626 88.544 102.154 89.52C102.682 90.48 102.946 91.536 102.946 92.688C102.946 92.816 102.946 92.944 102.946 93.072C102.946 93.184 102.938 93.272 102.922 93.336H92.2181C92.2981 94.232 92.5461 95.032 92.9621 95.736C93.3941 96.424 93.9461 96.976 94.6181 97.392C95.3061 97.792 96.0501 97.992 96.8501 97.992C97.6661 97.992 98.4341 97.784 99.1541 97.368C99.8901 96.952 100.402 96.408 100.69 95.736L102.106 96.12C101.85 96.712 101.458 97.248 100.93 97.728C100.402 98.208 99.7781 98.584 99.0581 98.856C98.3541 99.112 97.5941 99.24 96.7781 99.24ZM92.1701 92.16H101.41C101.346 91.248 101.098 90.448 100.666 89.76C100.25 89.072 99.6981 88.536 99.0101 88.152C98.3381 87.752 97.5941 87.552 96.7781 87.552C95.9621 87.552 95.2181 87.752 94.5461 88.152C93.8741 88.536 93.3221 89.08 92.8901 89.784C92.4741 90.472 92.2341 91.264 92.1701 92.16ZM110.704 87.936C109.616 87.968 108.656 88.272 107.824 88.848C107.008 89.424 106.432 90.216 106.096 91.224V99H104.464V86.496H106V89.496C106.432 88.616 107 87.904 107.704 87.36C108.424 86.816 109.184 86.512 109.984 86.448C110.144 86.432 110.28 86.424 110.392 86.424C110.52 86.424 110.624 86.432 110.704 86.448V87.936ZM115.598 99L110.534 86.496H112.238L116.51 97.368L120.806 86.496H122.414L117.35 99H115.598ZM123.675 99V86.496H125.307V99H123.675ZM123.675 83.88V81.48H125.307V83.88H123.675ZM133.326 99.24C132.414 99.24 131.574 99.072 130.806 98.736C130.054 98.384 129.39 97.904 128.814 97.296C128.254 96.688 127.814 95.992 127.494 95.208C127.19 94.424 127.038 93.592 127.038 92.712C127.038 91.528 127.302 90.448 127.83 89.472C128.358 88.496 129.094 87.72 130.038 87.144C130.982 86.568 132.07 86.28 133.302 86.28C134.47 86.28 135.502 86.552 136.398 87.096C137.294 87.624 137.958 88.344 138.39 89.256L136.806 89.76C136.454 89.12 135.958 88.624 135.318 88.272C134.694 87.904 133.998 87.72 133.23 87.72C132.398 87.72 131.638 87.936 130.95 88.368C130.262 88.8 129.71 89.392 129.294 90.144C128.894 90.896 128.694 91.752 128.694 92.712C128.694 93.656 128.902 94.512 129.318 95.28C129.734 96.048 130.286 96.664 130.974 97.128C131.662 97.576 132.422 97.8 133.254 97.8C133.798 97.8 134.318 97.704 134.814 97.512C135.326 97.32 135.766 97.064 136.134 96.744C136.518 96.408 136.774 96.048 136.902 95.664L138.51 96.144C138.286 96.736 137.91 97.272 137.382 97.752C136.87 98.216 136.262 98.584 135.558 98.856C134.87 99.112 134.126 99.24 133.326 99.24ZM145.356 99.24C144.46 99.24 143.628 99.072 142.86 98.736C142.092 98.384 141.428 97.912 140.868 97.32C140.308 96.712 139.868 96.016 139.548 95.232C139.244 94.448 139.092 93.608 139.092 92.712C139.092 91.544 139.356 90.472 139.884 89.496C140.428 88.52 141.172 87.744 142.116 87.168C143.06 86.576 144.132 86.28 145.332 86.28C146.564 86.28 147.636 86.576 148.548 87.168C149.476 87.76 150.204 88.544 150.732 89.52C151.26 90.48 151.524 91.536 151.524 92.688C151.524 92.816 151.524 92.944 151.524 93.072C151.524 93.184 151.516 93.272 151.5 93.336H140.796C140.876 94.232 141.124 95.032 141.54 95.736C141.972 96.424 142.524 96.976 143.196 97.392C143.884 97.792 144.628 97.992 145.428 97.992C146.244 97.992 147.012 97.784 147.732 97.368C148.468 96.952 148.98 96.408 149.268 95.736L150.684 96.12C150.428 96.712 150.036 97.248 149.508 97.728C148.98 98.208 148.356 98.584 147.636 98.856C146.932 99.112 146.172 99.24 145.356 99.24ZM140.748 92.16H149.988C149.924 91.248 149.676 90.448 149.244 89.76C148.828 89.072 148.276 88.536 147.588 88.152C146.916 87.752 146.172 87.552 145.356 87.552C144.54 87.552 143.796 87.752 143.124 88.152C142.452 88.536 141.9 89.08 141.468 89.784C141.052 90.472 140.812 91.264 140.748 92.16ZM157.146 99.24C156.122 99.24 155.17 99.072 154.29 98.736C153.41 98.4 152.65 97.888 152.01 97.2L152.682 96.048C153.386 96.704 154.09 97.184 154.794 97.488C155.514 97.776 156.274 97.92 157.074 97.92C158.05 97.92 158.842 97.728 159.45 97.344C160.058 96.944 160.362 96.376 160.362 95.64C160.362 95.144 160.21 94.768 159.906 94.512C159.618 94.24 159.194 94.024 158.634 93.864C158.09 93.688 157.434 93.504 156.666 93.312C155.802 93.072 155.074 92.824 154.482 92.568C153.906 92.296 153.466 91.96 153.162 91.56C152.874 91.144 152.73 90.608 152.73 89.952C152.73 89.136 152.93 88.464 153.33 87.936C153.746 87.392 154.306 86.984 155.01 86.712C155.73 86.424 156.53 86.28 157.41 86.28C158.37 86.28 159.218 86.432 159.954 86.736C160.69 87.04 161.29 87.464 161.754 88.008L160.962 89.112C160.514 88.6 159.978 88.224 159.354 87.984C158.746 87.728 158.066 87.6 157.314 87.6C156.802 87.6 156.314 87.672 155.85 87.816C155.386 87.944 155.002 88.168 154.698 88.488C154.41 88.792 154.266 89.216 154.266 89.76C154.266 90.208 154.378 90.56 154.602 90.816C154.826 91.056 155.162 91.264 155.61 91.44C156.058 91.6 156.61 91.776 157.266 91.968C158.21 92.224 159.034 92.488 159.738 92.76C160.442 93.016 160.986 93.352 161.37 93.768C161.754 94.184 161.946 94.768 161.946 95.52C161.946 96.688 161.506 97.6 160.626 98.256C159.746 98.912 158.586 99.24 157.146 99.24Z" fill="black"/>
<g clip-path="url(#clip0_1_272)">
<path d="M58.2096 42.3297C57.6971 45.2193 56.7436 47.7831 55.3671 49.9789C55.6412 50.4796 55.9213 50.9803 56.2073 51.493C58.1381 48.6819 59.3776 45.2917 59.8961 41.3947C59.2882 41.7084 58.7221 42.0221 58.2036 42.3358L58.2096 42.3297Z" fill="#62BB46"/>
<path d="M84.3229 13.4162C83.9475 13.3981 83.578 14.0013 83.6674 15.0148C83.7508 15.9196 84.1858 17.289 83.7925 18.9359C83.4826 20.5224 82.0941 23.8765 80.8665 25.7043C80.2527 26.6152 79.5436 27.5261 78.6676 28.3163C78.018 28.9136 77.3029 29.4625 76.5223 29.9451C76.5282 30.0416 76.5342 30.1381 76.5402 30.2347C76.57 30.6026 76.6117 30.9767 76.6534 31.3507C77.7022 30.7535 78.6557 30.0477 79.49 29.2574C80.4434 28.3767 81.1943 27.3693 81.8319 26.3739C83.0536 24.4375 83.5184 23.0862 84.168 20.824C84.8175 18.5619 85.1035 16.0886 85.1095 15.0751C85.1155 14.0074 84.7043 13.4282 84.3288 13.4101L84.3229 13.4162Z" fill="#62BB46"/>
<path d="M51.4936 53.912C48.5497 48.6517 45.4986 43.2165 45.9277 35.3803C46.2614 29.2936 49.6283 25.7767 53.2277 22.8027C52.9119 22.3925 52.5901 21.9943 52.2564 21.6083C48.5318 24.6908 44.7716 28.6059 44.4021 35.2899C43.9492 43.5785 47.1076 49.2188 50.1647 54.6721C51.3386 56.7654 52.4471 58.7501 53.3469 60.8554C54.4672 63.4855 55.2777 66.176 55.7604 68.8665C55.9272 68.3598 56.106 67.8651 56.2967 67.3705C56.4457 66.9904 56.6006 66.6104 56.7615 66.2364C56.2609 64.2215 55.5935 62.2127 54.7533 60.2401C53.8236 58.0563 52.6377 55.945 51.4995 53.906L51.4936 53.912Z" fill="#62BB46"/>
<path d="M49.1039 55.2814C46.1064 49.9367 42.7157 43.874 43.1864 35.2235C43.5797 28.0207 47.5486 23.9187 51.434 20.6973C51.0764 20.3173 50.7129 19.9554 50.3434 19.6055C48.0074 21.566 45.7906 23.7618 44.1816 26.5247C43.6989 26.0059 43.2103 25.4992 42.7097 25.0045C42.0065 24.3108 41.2854 23.6593 40.5525 23.044C39.0746 21.8194 37.5311 20.7878 36.0056 19.9312C34.4741 19.0746 32.9664 18.3809 31.5302 17.8018C31.1667 17.663 30.8151 17.5243 30.4695 17.3916C30.1238 17.2589 29.7722 17.1442 29.4385 17.0236C28.7711 16.7944 28.1275 16.5712 27.5137 16.36C25.6306 15.6904 23.8845 14.9665 22.8715 14.4477C21.8584 13.9289 21.4412 13.0723 21.185 12.3303C20.8513 11.347 20.16 10.961 19.7012 11.2264C19.2185 11.5099 19.3615 12.4269 19.8084 13.1206C20.2494 13.8083 22.7046 15.4913 27.1263 17.2769C27.7282 17.5182 28.3659 17.7656 29.0214 18.025C29.3491 18.1577 29.6828 18.2844 30.0166 18.4231C30.3503 18.5679 30.69 18.7127 31.0415 18.8635C32.4181 19.4728 33.8722 20.1786 35.3262 21.0352C36.7803 21.8857 38.2343 22.8992 39.6407 24.0755C40.3379 24.6727 41.0292 25.3001 41.7026 25.9697C42.3045 26.5669 42.8944 27.1943 43.4903 27.8337C43.3354 28.1535 43.1864 28.4852 43.0494 28.8231C42.525 28.2439 41.9946 27.6829 41.4523 27.146C40.6299 26.3498 39.8016 25.5776 38.9256 24.8899C37.2034 23.4783 35.3799 22.3382 33.5921 21.385C31.7984 20.4319 30.0285 19.6779 28.3539 19.0445C27.5197 18.7187 26.6973 18.4533 25.9107 18.1818C24.6473 17.7414 22.0789 16.6978 21.775 16.5651C21.1612 16.2997 19.9395 15.6783 18.7894 14.7795C17.6393 13.8807 17.7108 12.9879 17.5916 11.9744C17.5141 11.3591 16.7811 11.0575 16.4236 11.4134C16.066 11.7693 16.0422 12.3122 16.4593 13.1387C16.8169 13.8384 17.8121 14.8338 18.6106 15.5275C19.4092 16.2213 21.185 17.2709 21.3399 17.3554C21.6439 17.5122 23.819 18.5317 25.5114 19.2013C26.2682 19.5029 27.0727 19.7804 27.8772 20.1243C29.4981 20.7878 31.2084 21.566 32.9247 22.5131C34.6409 23.4662 36.375 24.5822 38.0138 25.9396C38.8422 26.6031 39.6347 27.3511 40.4273 28.1173C41.1365 28.8231 41.8277 29.5711 42.5071 30.3432C42.3879 30.7293 42.2806 31.1214 42.1853 31.5256C41.9171 31.2059 41.6609 30.8862 41.351 30.5544C40.6478 29.7883 39.9267 29.0402 39.1938 28.3344C37.7337 26.9108 36.1843 25.6621 34.6171 24.6184C33.0438 23.5809 31.4468 22.7665 29.9093 22.121C29.5219 21.9642 29.1465 21.8013 28.7711 21.6686C25.7617 20.5888 23.7534 20.2449 22.9668 20.1363C21.2327 19.9011 18.8252 18.7851 18.2948 18.037C17.8121 17.3493 16.9659 16.909 16.5368 17.1925C16.1078 17.476 16.2269 18.3869 17.3532 19.147C18.3663 19.8347 19.7071 20.2932 21.179 20.625C22.651 20.9567 23.9322 21.2282 25.2373 21.5962C25.8809 21.7832 26.5602 22.0426 27.2634 22.2839C27.609 22.4226 27.9666 22.5614 28.3241 22.7062C28.6877 22.8449 29.0392 23.0198 29.4087 23.1767C30.8687 23.8403 32.3764 24.6607 33.8662 25.6741C35.3441 26.6996 36.8101 27.9001 38.2105 29.2876C38.9137 29.9813 39.6049 30.7112 40.3022 31.4713C40.6299 31.8152 40.9517 32.2314 41.2914 32.6356C41.4821 32.8648 41.6668 33.094 41.8575 33.3233C41.7741 33.9145 41.7085 34.5237 41.6787 35.1511C41.1841 44.2541 44.6941 50.5278 47.7929 56.0596C47.9359 56.313 48.0789 56.5603 48.222 56.8197C50.707 61.2173 53.7402 66.5802 53.9607 78.6692C54.0203 77.6739 54.1097 76.6785 54.2348 75.6952C54.4136 74.3138 54.6639 72.9444 54.9916 71.6113C53.9666 63.8596 51.583 59.6429 49.5509 56.0475C49.4078 55.7942 49.2648 55.5408 49.1278 55.2935L49.1039 55.2814Z" fill="#62BB46"/>
<path d="M99.9122 24.8658C99.4772 24.7934 99.0302 25.463 98.8932 26.1507C98.5118 28.0509 97.9993 30.2769 92.0401 35.9896C89.8828 38.0588 84.3467 41.8049 82.8271 42.8606C79.7879 44.978 76.4567 47.3367 73.1076 50.1961C69.7764 53.0615 66.4214 56.4517 63.6146 60.6201C62.2142 62.7013 60.9628 64.9756 59.9795 67.4308C57.5779 73.4451 57.28 78.7296 57.2978 83.5616C57.3038 85.8418 58.001 92.5258 60.4562 98.1963C61.1773 99.8552 61.9401 98.8056 63.99 99.1856C65.6527 99.4933 67.7682 100.422 69.8182 98.7332C69.9612 98.6186 69.9135 98.3712 69.7347 98.3471C62.685 97.4 60.7542 94.7397 60.0689 91.2107C59.5802 88.7072 59.2286 86.1555 59.0916 83.652C58.9664 80.9374 59.1095 78.253 59.5087 75.6651C59.9139 73.0772 60.5873 70.5797 61.5051 68.2391C62.4168 65.8925 63.5908 63.7087 64.9018 61.6939C67.5358 57.6522 70.7478 54.3042 73.9658 51.4387C77.2076 48.5794 80.4554 46.1724 83.4528 43.9887C84.9486 42.8968 87.809 40.8819 92.6717 36.7075C97.5345 32.527 100.002 27.333 100.294 26.5066C100.586 25.6741 100.347 24.9382 99.9122 24.8658Z" fill="#62BB46"/>
<path d="M103.154 36.1887C104.018 35.8388 105.764 36.0318 106.241 36.1284C106.771 36.2309 107.302 36.1525 107.439 35.7544C107.6 35.2838 107.105 34.9038 106.39 34.9038C105.687 34.9038 103.667 35.1149 101.813 35.8026H101.825C101.176 36.0077 100.472 36.2731 99.7513 36.611C99.5546 36.7015 99.352 36.804 99.1554 36.9066C101.42 33.5827 102.814 30.1623 103.047 29.547C103.315 28.8412 103.13 28.0087 102.737 27.9242C102.344 27.8398 101.789 28.2379 101.706 29.1669C101.67 29.5771 101.849 30.1804 101.11 31.8936C100.371 33.6128 99.8764 34.1497 99.215 35.127C98.5475 36.0982 97.7252 37.1599 96.73 38.2518C94.7515 40.4536 92.0341 42.7218 88.834 45.0202C87.2369 46.1784 85.5267 47.3548 83.7746 48.6397C82.7318 49.4118 81.6651 50.2141 80.6222 51.0949V51.0828C80.6222 51.0828 76.2303 54.4067 74.0432 56.6749C74.0432 56.6749 76.1826 55.209 79.7045 54.2137C83.6912 53.2123 87.6064 52.6935 91.1819 52.2169C92.8744 51.9937 94.4893 51.7766 96.0149 51.5353C96.2115 51.0708 96.4201 50.6606 96.581 50.2684C94.8886 50.4977 93.0293 50.6967 91.0866 50.9199C88.1606 51.2517 84.9724 51.6318 81.671 52.3195C82.6484 51.493 83.6495 50.7148 84.6506 49.9668C86.3669 48.6819 88.0653 47.4754 89.6624 46.2689C92.5943 44.0731 95.1508 41.8411 97.0637 39.6393C97.0637 39.6393 98.0291 38.7706 98.5535 38.4086C98.8097 38.2216 99.8824 37.5882 100.151 37.4555C101.092 36.9669 102.296 36.5386 103.166 36.1887H103.154Z" fill="#62BB46"/>
<path d="M108.821 44.8996C108.493 44.6221 107.772 44.972 107.218 45.6536C106.712 46.275 106.455 47.3065 104.072 48.4949C103.088 48.9111 101.92 49.2671 100.603 49.5687C100.508 49.5928 100.413 49.6109 100.311 49.635C100.097 50.009 99.8884 50.4132 99.6917 50.8355C100.067 50.745 100.437 50.6545 100.794 50.552C102.153 50.178 103.369 49.7316 104.382 49.2248C104.662 49.0981 107.463 47.4151 108.464 46.2448C109.072 45.533 109.089 45.1409 108.809 44.9056L108.821 44.8996Z" fill="#62BB46"/>
<path d="M73.5427 46.1784C73.9419 45.8829 74.3353 45.5873 74.7345 45.2977C73.197 40.3089 72.4402 35.3442 72.2614 30.7957C72.0648 25.9878 72.5117 21.6505 73.2447 18.0913C73.501 16.8426 73.793 15.6904 74.085 14.6227C75.8429 9.74241 76.1945 6.99161 76.272 6.54521C76.3852 5.89974 76.2303 4.5907 75.5688 4.58466C74.9967 4.57863 74.7762 5.35079 74.7524 6.00832C74.7345 6.52711 75.1874 8.25843 74.0492 12.089C73.4831 13.6756 72.8395 15.5818 72.2912 17.8078C71.4152 21.4092 70.8491 25.837 70.9743 30.7535C71.0875 35.5734 71.8562 40.8699 73.5486 46.1724L73.5427 46.1784Z" fill="#62BB46"/>
<path d="M71.3497 47.8675C71.3497 47.8675 71.3675 47.8555 71.3735 47.8494C71.7668 47.5418 72.1542 47.2341 72.5415 46.9325C71.3437 42.5288 70.6465 38.2216 70.3545 34.2462C70.0327 29.9511 70.1697 26.0602 70.4975 22.8208C70.8133 19.6537 71.308 17.102 71.7072 15.3224C72.0886 13.754 72.6547 13.0723 72.8693 12.4389C73.1553 11.6004 73.1076 10.7559 72.7263 10.7016C72.3449 10.6473 71.8502 11.3229 71.6417 12.089C71.4271 12.8491 70.0923 18.7006 69.5262 22.6458C69.0554 25.9215 68.817 29.8787 69.0673 34.2643C69.3057 38.5112 70.0267 43.1501 71.3556 47.8675H71.3497Z" fill="#62BB46"/>
<path d="M59.8365 17.3373C60.0391 17.1744 60.2298 16.9995 60.4205 16.8245C60.629 16.6254 60.8317 16.4203 61.0283 16.2152C61.2131 16.0041 61.4037 15.793 61.5885 15.5818C62.2917 14.7192 62.8816 13.8264 63.3822 12.9396C64.3834 11.1661 64.9793 9.43476 65.3726 7.96887C65.4679 7.60089 65.5692 7.25101 65.6408 6.91923C65.6527 6.86493 65.6586 6.81064 65.6705 6.75635C65.9864 5.47144 66.2963 4.51228 66.3559 3.81854C66.4154 3.09465 66.2546 2.28027 65.8791 2.18978C65.5096 2.09929 65.0448 2.46124 64.9197 3.61344C64.7945 4.76564 65.3309 5.18188 64.586 7.63709C64.586 7.63709 64.574 7.67328 64.5681 7.69741C64.0854 9.08488 63.4299 10.7136 62.4407 12.3605C61.9401 13.1749 61.3799 14.0074 60.7125 14.7916C60.5397 14.9846 60.3668 15.1716 60.194 15.3707C60.0153 15.5577 59.8246 15.7387 59.6398 15.9257C59.4432 16.0946 59.2525 16.2816 59.0439 16.4384C59.3121 16.728 59.5802 17.0296 59.8484 17.3373H59.8365Z" fill="#62BB46"/>
<path d="M58.8532 7.51644C58.9247 7.66122 59.0022 7.81806 59.0856 7.9749C59.3299 8.4394 59.6339 8.9039 59.9914 9.3503C60.1702 9.57954 60.3609 9.79671 60.5695 10.0139C60.6827 10.1345 60.7959 10.2431 60.921 10.3577C60.8019 10.5749 60.6767 10.7981 60.5397 11.0213C60.4383 11.1962 60.3251 11.3712 60.2119 11.5401C60.0987 11.715 59.9795 11.89 59.8603 12.0649C59.6041 12.4027 59.3597 12.7586 59.0737 13.0965C59.0022 13.1809 58.9366 13.2654 58.8651 13.3559L58.6446 13.6092C58.4956 13.7781 58.3467 13.947 58.1917 14.1099C57.9593 14.3572 57.709 14.6046 57.4587 14.8278C57.7388 15.0932 58.0129 15.3647 58.2871 15.6542C58.293 15.6603 58.299 15.6663 58.3049 15.6723C60.933 13.2171 62.3513 10.2552 63.0246 7.90251C63.4835 6.52712 63.9304 3.77028 63.996 2.84129C64.0616 1.91229 63.8113 1.15823 63.3166 1.116C62.822 1.07378 62.4824 1.80974 62.5539 2.7327C62.6194 3.54105 62.9889 5.2241 61.9579 8.16794C61.7911 8.57815 61.6064 9.00042 61.3978 9.43476C61.3561 9.39856 61.3144 9.35634 61.2786 9.32014C61.0939 9.13313 60.9151 8.9401 60.7542 8.73499C60.4264 8.33685 60.1344 7.92664 59.8841 7.51644C59.6458 7.13036 59.4491 6.75032 59.2763 6.3763C58.7638 4.99487 58.9128 4.11413 59.0022 3.44453C59.1273 2.49744 58.6446 1.93038 58.2752 1.92435C57.7507 1.91832 57.4647 2.72667 57.56 3.58931C57.6554 4.45195 58.448 6.76841 58.8472 7.52247L58.8532 7.51644Z" fill="#62BB46"/>
<path d="M54.0918 23.979C54.2467 24.1962 54.3778 24.4254 54.5268 24.6426C54.6698 24.8658 54.8188 25.089 54.9559 25.3242C55.087 25.5595 55.224 25.7948 55.3611 26.03L55.5637 26.386C55.6293 26.5066 55.6889 26.6333 55.7544 26.7539C55.8796 27.0013 56.0047 27.2486 56.1298 27.4959C56.255 27.7433 56.3622 28.0027 56.4755 28.262C56.5887 28.5154 56.7079 28.7748 56.8092 29.0402C57.6018 30.9887 58.2036 33.1001 58.5135 35.3019C58.9486 35.1029 59.3895 34.9098 59.8424 34.7228C59.0975 30.0658 57.1608 25.8792 54.7056 22.6217C53.3946 20.8723 51.9346 19.3762 50.4626 18.1275C50.0932 17.8199 49.7237 17.5001 49.378 17.2227C46.6368 14.9967 45.3913 13.4343 44.8967 12.8371C41.7681 8.50576 42.2568 6.56934 42.1376 5.44127C42.0184 4.30114 41.8039 3.70393 41.2854 3.70393C40.767 3.70393 40.4631 4.44592 40.5405 5.65844C40.5882 6.38234 41.2139 8.17398 42.1555 10.0561C42.4177 10.593 43.9134 13.3076 45.7966 15.3285C46.0766 15.6241 49.2946 18.6644 49.6462 18.9721C51.0288 20.2087 52.3934 21.6565 53.621 23.3456C53.77 23.5567 53.9249 23.7679 54.0799 23.985L54.0918 23.979Z" fill="#62BB46"/>
<path d="M68.9779 32.0263C68.9302 32.0384 68.8766 32.0504 68.8289 32.0565C61.368 33.5706 55.4386 36.2068 51.5412 39.7358C51.6068 40.2666 51.6962 40.7915 51.8035 41.3042C54.4911 38.6439 59.5921 35.2959 69.0256 33.3715C69.0077 32.9191 68.9898 32.4727 68.9839 32.0263H68.9779Z" fill="#62BB46"/>
<path d="M89.1975 17.108C88.7089 17.1322 88.5361 17.85 88.5301 18.8695C88.5301 19.4909 88.4407 20.6853 88.1606 21.5479C87.8746 22.4106 87.4992 23.231 87.0403 24.2022C86.5874 25.1131 86.0928 26.1085 85.4373 27.1038C85.1334 27.6166 84.7758 28.1112 84.3944 28.6119C82.3444 31.3205 79.4304 33.3414 77.1063 34.5056C77.1838 34.9339 77.2672 35.3683 77.3506 35.7966C80.1812 34.379 83.0774 32.2857 85.2645 29.3117C86.1643 28.0931 87.4992 25.5474 87.8448 24.5883C88.3811 23.0802 89.4955 20.4199 89.722 19.0807C89.8888 18.0853 89.6922 17.0718 89.2035 17.102L89.1975 17.108Z" fill="#5C2F92"/>
<path d="M32.8412 7.90252C32.9306 8.9401 32.9962 10.6895 32.7638 13.018C32.6744 13.8807 32.5135 14.7735 32.3109 15.6964C32.1559 16.4143 31.9712 17.1503 31.7686 17.8983C32.138 18.0491 32.5075 18.2059 32.8829 18.3749C33.0975 17.5665 33.3001 16.7582 33.455 15.9679C33.6457 15.0027 33.8126 14.0617 33.8603 13.1568C34.0748 9.08488 33.6755 5.97816 33.4074 5.0009C33.1094 3.89697 32.3585 3.36611 31.9652 3.58328C31.5779 3.80045 31.5242 4.82596 32.1142 5.69464C32.5909 6.40043 32.7757 7.14243 32.8412 7.90252Z" fill="#5C2F92"/>
<path d="M30.2728 14.9303C30.1775 15.6361 30.0642 16.3962 29.8438 17.1623C30.0523 17.2347 30.2609 17.3071 30.4695 17.3855C30.5708 17.4278 30.678 17.464 30.7793 17.5062C31.0296 16.6435 31.0535 15.9981 31.1965 14.5744C31.3991 12.5596 30.8032 10.3939 30.2728 9.48905C29.9629 8.96423 29.23 8.71086 28.8784 9.01249C28.6221 9.22966 28.5148 9.71828 28.8664 10.1526C30.1953 11.7934 30.4933 13.2955 30.2728 14.9243V14.9303Z" fill="#5C2F92"/>
<path d="M46.2733 76.6484C46.1899 74.0966 45.8502 71.5871 45.3437 69.1621C44.8372 66.7431 44.0923 64.3965 43.0554 62.2489C42.0244 60.1315 40.8326 58.1348 39.4143 56.3793C38.0019 54.6239 36.3512 53.164 34.6469 51.9093C32.6267 50.4193 29.9749 49.3575 28.5923 48.8448C26.9834 48.2476 25.0228 47.8313 23.9144 47.6443C21.9597 47.3065 20.0945 47.1135 18.3485 47.0049C18.1637 46.4378 17.4784 44.423 17.0374 43.6207C16.4415 42.5228 15.8217 41.5515 15.0947 40.701C13.6883 39.0481 12.0317 37.926 10.524 37.2745C8.55151 36.3395 6.22145 35.7302 5.13688 35.8026C4.29067 35.8629 3.52789 36.243 3.55173 36.798C3.57556 37.353 4.535 37.4796 5.32161 37.2625C5.8937 37.1056 7.25836 36.7075 9.98172 37.9743C11.406 38.6379 12.9256 39.784 14.2306 41.3947C14.8802 42.197 15.488 43.1079 15.9767 44.1274C16.4296 45.0805 16.9302 46.5163 17.0672 46.9325C16.1793 46.8903 15.3331 46.8601 14.5286 46.8179C11.7993 46.661 9.45731 46.3956 7.5742 46.0518C7.10342 45.9733 5.61361 45.6838 4.91639 45.4003C2.0798 44.23 2.09768 43.5604 1.60306 42.8847C1.13824 42.2453 0.506568 41.8351 0.166892 42.1729C-0.172783 42.5107 0.0477081 43.3734 0.554241 43.8499C1.6567 44.8815 3.07499 45.9673 8.30718 46.8601C10.0234 47.216 12.0555 47.5056 14.3677 47.7107C17.1268 47.9399 20.2256 48.0726 23.5806 48.7362C25.0168 49.0197 27.4303 49.6652 28.7115 50.2081C30.0583 50.7812 31.7984 51.493 33.7769 52.9167C35.3858 54.081 36.9055 55.4805 38.2344 57.1454C39.5513 58.8164 40.6896 60.7106 41.6669 62.7556C42.6382 64.7825 43.3414 66.9904 43.8241 69.3129C44.3068 71.6354 44.5928 74.0665 44.7061 76.5458C44.7954 78.4822 44.7895 80.4548 44.7061 82.4516C44.1697 89.1657 43.8777 90.891 42.8945 93.5332C41.3689 97.6232 39.4322 97.6112 40.7253 94.8483C41.6669 92.8334 42.823 87.2353 43.1984 84.3398C43.2341 84.0502 43.5142 80.3402 43.5083 78.7778C43.5023 74.344 42.8825 70.0428 41.5477 66.1519C40.8862 64.2095 40.046 62.3756 39.0329 60.7046C38.0198 59.0336 36.828 57.5376 35.505 56.2587C34.188 54.9798 32.74 53.9301 31.2502 53.1097C30.5112 52.6814 29.7544 52.3798 29.0333 52.036C28.3123 51.6921 27.4124 51.3603 26.8582 51.1552C23.9918 50.0875 21.2685 49.5325 18.8609 49.2791C16.8884 49.068 16.3283 49.0197 13.6347 49.1585C10.9352 49.2912 7.38946 49.991 6.56113 50.3046C6.0546 50.4916 5.61361 50.7088 5.33353 50.9863C5.05345 51.2638 5.01769 51.5353 5.10112 51.674C5.26798 51.9515 6.08439 52.1445 7.18089 51.487C7.66358 51.1974 9.33812 50.1719 12.6455 49.9065C14.028 49.7979 15.6966 49.8401 17.5618 50.0392C14.91 50.8114 13.4679 52.8081 12.9494 53.7371C12.4846 54.5756 12.7706 55.2694 13.0448 55.384C13.4202 55.5408 13.9565 55.2392 14.2128 54.5032C14.469 53.7612 14.9398 52.1144 16.3223 51.3784C17.7645 50.6063 19.3019 50.2383 21.9657 50.8053C23.5151 51.1371 24.8559 51.6016 26.3755 52.1928C27.0608 52.4763 28.9857 53.1821 30.5648 54.1473C31.9235 54.9738 33.2822 55.9329 34.5039 57.1394C35.7255 58.3459 36.828 59.7575 37.7695 61.332C38.7111 62.9125 39.4917 64.6559 40.1115 66.5078C40.7313 68.3598 41.1901 70.3203 41.5 72.3533C41.798 74.3862 41.941 76.4915 41.941 78.6331C41.941 81.0702 41.6252 84.382 41.3629 86.0469C41.1007 87.7119 40.8385 88.9666 40.5823 90.0585C38.9912 96.2599 36.244 98.0636 34.2774 98.6729C34.0391 98.7453 34.0569 99.0951 34.3072 99.1374C36.8101 99.5596 41.4702 101.237 44.1757 95.4455C45.0875 93.491 45.6178 90.4205 45.9217 87.3861C46.035 86.3908 46.1184 85.4015 46.1839 84.4121C46.327 82.2766 46.321 78.1082 46.2733 76.6303V76.6484Z" fill="#5C2F92"/>
<path d="M61.0641 40.8277C60.5754 45.1228 59.0081 49.2671 56.69 52.3496C56.9582 52.8322 57.2323 53.3209 57.5005 53.8155C60.3609 50.2684 62.25 45.2675 62.6671 40.152C62.1069 40.3692 61.5706 40.5984 61.07 40.8277H61.0641Z" fill="#5C2F92"/>
<path d="M69.2699 36.9126C59.7292 38.7223 54.7831 42.8546 52.8761 44.8634C53.0489 45.3098 53.2396 45.7501 53.4363 46.1905C54.8069 44.61 59.4312 40.146 69.4189 38.2277C69.3653 37.7813 69.3176 37.3469 69.2699 36.9066V36.9126Z" fill="#5C2F92"/>
<path d="M55.0989 21.2765C55.7127 22.1029 57.8938 24.9985 58.7936 27.2969C59.6637 29.5108 60.4562 31.8453 60.8078 34.3367C61.2488 34.1678 61.6958 34.0049 62.1487 33.8481C61.7673 31.3507 61.0343 28.9739 60.0689 26.7901C59.0081 24.3892 57.2442 21.8857 56.1358 20.4983C55.4028 19.5874 53.0072 17.1201 51.3744 15.8171C49.8131 14.5442 47.5188 12.3364 46.4282 10.4844C44.2055 6.73222 44.0505 4.12017 44.2174 2.5095C44.3723 0.98329 44.1339 0.00603191 43.6036 -0.0120655C42.8527 -0.0301628 42.6024 1.06171 42.6978 2.5457C42.7931 4.00555 44.0386 7.95077 44.9325 9.63383C45.3198 10.3698 45.7787 11.3953 46.6189 12.463C47.4592 13.5308 49.0145 15.3285 50.5997 16.6858C52.1491 17.9767 54.4791 20.438 55.0989 21.2644V21.2765Z" fill="#5C2F92"/>
<path d="M30.4754 44.4652C30.4754 44.4652 30.4933 44.4713 30.5171 44.4773C30.5648 44.4894 30.6065 44.5014 30.6542 44.5195C30.9641 44.616 31.4885 44.7789 32.1023 45.0021C30.1894 40.4114 29.2359 35.6759 28.9975 33.7636C28.5208 29.9873 28.6102 26.3136 29.2538 23.0983C28.9379 22.9595 28.6281 22.8147 28.3182 22.6881C28.2169 22.6458 28.1275 22.6096 28.0262 22.5734C27.3111 25.9938 27.1979 29.9089 27.7044 33.9326C27.9368 35.7604 28.7949 40.0857 30.4814 44.4652H30.4754Z" fill="#5C2F92"/>
<path d="M35.356 46.4137C31.5064 37.5279 30.3622 30.6268 31.4825 24.2082C31.0773 23.985 30.6721 23.7739 30.2668 23.5748C29.0452 29.9994 30.1536 37.3892 33.5623 45.5631C34.1642 45.8165 34.7839 46.1 35.356 46.4077V46.4137Z" fill="#5C2F92"/>
<path d="M63.7755 39.7358C63.3882 45.0685 61.2429 50.8174 58.0904 54.9255C58.3526 55.4202 58.6089 55.9209 58.8532 56.4336C62.542 51.9093 65.0448 45.2615 65.3368 39.223C64.7945 39.3859 64.2761 39.5548 63.7755 39.7358Z" fill="#FAA41A"/>
<path d="M36.0056 19.9312C36.2559 20.07 36.5002 20.2148 36.7505 20.3656C36.8995 19.6658 37.0365 19.0143 37.1557 18.4412C37.8351 15.3526 38.8124 14.1642 39.6407 13.5549C40.2009 13.1447 40.2724 12.4329 39.9089 12.0951C39.5632 11.7754 38.8422 11.9624 38.4489 12.6561C37.9959 13.4584 36.822 15.793 36.1367 18.3085C35.9817 18.7489 35.8268 19.2375 35.6838 19.7623C35.791 19.8226 35.8923 19.8769 35.9996 19.9373L36.0056 19.9312Z" fill="#FAA41A"/>
<path d="M35.5408 11.2747C35.4692 12.0468 35.3084 12.8612 35.1355 13.7178C34.8137 15.2983 34.337 16.9995 33.8483 18.8213C34.2119 18.9962 34.5754 19.1711 34.9448 19.3642C35.4454 17.4881 35.94 15.6602 36.2201 13.947C36.7564 10.6774 36.8518 5.94197 36.7207 5.07933C36.5836 4.17446 36.1009 3.20927 35.4514 3.28769C34.6409 3.39024 34.6588 4.75357 35.1772 5.68257C35.6897 6.6176 35.8089 8.44544 35.5467 11.2747H35.5408Z" fill="#FAA41A"/>
<path d="M15.1304 44.5798C13.0566 44.5075 9.41556 44.2179 7.70527 43.4759C3.7841 41.7687 2.73528 39.7901 2.57438 39.024C2.47903 38.5776 2.32409 38.1915 2.15724 37.9502C1.72221 37.3228 1.29911 37.7089 1.15013 38.1432C1.01307 38.5595 1.12033 39.1265 1.41829 39.6574C1.95462 40.6105 4.36215 43.675 9.49303 44.8634C12.2402 45.4968 15.2079 45.6295 15.5714 45.6597C15.4344 45.2917 15.2854 44.9297 15.1304 44.5919V44.5798Z" fill="#FAA41A"/>
<path d="M92.4453 44.0611C92.1533 48.0606 90.2404 50.8053 90.0795 51.0346C90.4132 50.9984 90.7469 50.9561 91.0806 50.92C91.2356 50.9019 91.3905 50.8838 91.5514 50.8657C92.3321 49.5144 93.6372 46.7033 93.6372 43.0416C93.2558 43.3794 92.8565 43.7172 92.4513 44.0611H92.4453Z" fill="#FAA41A"/>
<path d="M94.7217 42.0402C94.7992 44.4109 94.5191 47.5418 92.6241 50.745C93.1008 50.6907 93.5656 50.6364 94.0305 50.5882C95.9553 46.9144 95.997 43.4095 95.8123 40.9785C95.4666 41.3344 95.1031 41.6903 94.7217 42.0462V42.0402Z" fill="#FAA41A"/>
<path d="M97.0637 39.6513L97.0458 39.6332C96.9326 39.7659 96.8134 39.8987 96.6942 40.0314C97.2604 43.9706 96.8075 47.1316 95.2342 50.4374C95.6871 50.3831 96.1341 50.3227 96.5691 50.2624C96.5453 50.3167 96.5214 50.371 96.4976 50.4253C98.0887 46.848 98.4462 43.3975 97.6894 39.036C97.463 39.229 97.2484 39.4281 97.0577 39.6453L97.0637 39.6513Z" fill="#FAA41A"/>
<path d="M108.678 48.7905C108.476 48.4346 107.874 48.5432 107.433 49.068C107.004 49.5747 106.003 50.4554 104.942 50.926H104.93C104.382 51.1492 103.75 51.3784 103.023 51.6077C101.706 52.0239 100.115 52.4582 98.327 52.8021C98.1423 52.8383 97.9576 52.8745 97.7669 52.9046C97.9397 52.4341 98.1244 51.9756 98.3151 51.5353C98.7084 50.6304 99.1256 49.7798 99.5725 48.9956C100.46 47.4211 101.515 45.9975 102.618 44.8815C103.72 43.7655 104.817 43.3733 105.317 43.3191C106.503 43.1803 106.837 42.559 106.73 42.2754C106.551 41.8109 105.931 41.7747 104.894 42.3177C104.429 42.565 103.762 43.0114 103.112 43.4759C101.789 44.4109 99.507 46.9868 98.6488 48.4044C98.1542 49.2128 97.6954 50.0935 97.2663 51.0285C96.9624 51.6981 96.6823 52.3979 96.432 53.1278C96.1341 53.1701 95.8301 53.2123 95.5202 53.2545C94.966 53.3148 88.2381 53.7492 85.324 54.3826C82.1656 55.0703 78.6974 55.9329 75.1934 57.5315C73.4533 58.3399 71.6893 59.3051 70.0148 60.5296C69.4248 60.958 68.8468 61.4164 68.2807 61.905C68.6799 61.2837 69.0852 60.6744 69.5083 60.0893C71.4808 57.3445 73.7572 54.9919 76.117 52.9589C78.4829 50.926 80.9023 49.1766 83.1787 47.5418C85.4611 45.907 87.6004 44.3747 89.4955 42.8908C90.4549 42.1427 92.1771 40.7191 92.1771 40.7191C97.6775 36.3335 99.8943 32.0142 100.21 31.417C100.526 30.8198 100.502 30.0839 100.097 29.8124C99.787 29.6073 99.1196 29.933 98.8515 30.6268C98.3986 31.785 96.9862 35.2537 94.388 37.54C91.7898 39.8202 90.8006 40.526 88.8876 41.9256C86.9747 43.3372 84.8175 44.797 82.5053 46.3835C80.1931 47.9761 77.7141 49.7014 75.253 51.7464C72.7978 53.7974 70.5094 56.3009 68.3164 59.0577C64.6873 63.6122 61.8447 70.2479 60.7363 77.8549C60.3907 80.2196 60.5099 83.7486 60.6827 85.6066C60.8555 87.4646 61.6421 91.2107 62.4943 92.9903C63.8709 95.8617 66.4214 96.3262 66.4274 95.7411C66.4393 94.9086 64.9197 94.426 64.0139 92.2664C63.1021 90.1007 62.8399 88.4961 62.4824 85.5764C62.2857 84.014 62.238 80.4729 62.4764 78.2108C62.7029 75.9486 63.2153 73.7407 63.7815 71.6475C64.3953 69.6025 65.3666 67.7264 66.5942 66.0976C67.8218 64.4688 69.2878 63.0814 70.8431 61.905C72.3985 60.7287 74.0552 59.7696 75.7118 58.9612C79.0371 57.3505 82.3802 56.3552 85.473 55.6735C87.4217 55.2452 89.275 54.9557 91.0091 54.7506C93.4822 54.5213 97.5941 54.1232 100.407 54.4912C102.904 54.8169 104.674 55.7761 105.502 56.5724C106.116 57.1635 106.992 57.3023 107.272 56.8257C107.528 56.3914 106.992 55.6796 106.157 55.1728C105.055 54.5032 102.582 53.8517 99.2567 53.5561C100.353 53.2907 101.36 52.983 102.266 52.6694C104.697 51.9515 106.557 51.0466 107.54 50.4977C108.529 49.9548 108.899 49.1645 108.696 48.8086L108.678 48.7905Z" fill="#FAA41A"/>
<path d="M93.2379 28.4853C93.3273 28.8351 93.4882 29.1669 93.6193 29.5168L93.953 30.1683C94.1794 29.8607 94.394 29.559 94.5906 29.2634C94.5727 29.2152 94.245 28.4249 94.245 28.4249L94.1675 28.1897C94.0722 27.876 93.953 27.5683 93.8934 27.2546C93.8219 26.947 93.7444 26.6454 93.7146 26.3437C93.5299 25.1433 93.5895 23.6533 93.7146 23.0259C93.9947 21.5238 94.6919 21.0171 94.8767 20.7758C95.2402 20.2992 95.3296 19.5753 95.0793 19.4004C94.829 19.2254 94.3344 19.3521 93.9291 20.0036C93.5239 20.6551 92.8386 22.7665 92.7611 24.4797C92.6837 26.1929 92.8744 27.0857 93.2379 28.4913V28.4853Z" fill="#FAA41A"/>
<path d="M90.7469 28.8351C90.8006 29.0161 90.8661 29.1971 90.9376 29.3781C91.1104 29.8365 91.3548 30.289 91.6289 30.7414C91.897 31.1697 92.2129 31.5497 92.5228 31.9358C92.7552 31.6704 92.9757 31.411 93.1842 31.1576C92.9161 30.8258 92.6539 30.5122 92.4453 30.1985C92.1891 29.8064 91.9566 29.4142 91.7838 29.0161C91.5812 28.5697 91.4263 28.1354 91.3071 27.7191C90.8721 25.7164 91.3369 25.5173 91.4918 24.8477C91.6885 23.9911 91.3607 23.3034 90.9913 23.2672C90.6277 23.231 90.2046 23.6955 90.0974 24.7874C89.9901 25.8792 90.2881 27.3331 90.741 28.8532V28.8412L90.7469 28.8351Z" fill="#FAA41A"/>
<path d="M87.3144 29.9029C87.6898 29.927 88.9174 30.3855 89.7994 31.3145C89.8471 31.3688 89.8888 31.4231 89.9365 31.4834C90.3536 32.0263 90.735 32.7019 91.0568 33.4801C91.1998 33.3414 91.3428 33.2087 91.4859 33.0699L91.5157 33.0217C91.5693 32.9613 91.6229 32.907 91.6825 32.8467C91.462 32.4184 91.2236 32.0203 90.9734 31.6704H90.9853C89.6087 29.8426 88.2083 28.9437 87.6302 28.6783C86.9032 28.3465 86.4324 28.6783 86.349 29.0945C86.2894 29.4082 86.8138 29.8727 87.3204 29.9029H87.3144Z" fill="#FAA41A"/>
<path d="M75.241 30.2709C75.3721 32.34 75.688 34.4875 76.129 36.6834C76.564 38.8007 77.1063 40.9604 77.7975 43.1501C78.2087 42.8727 78.608 42.5952 79.0132 42.3237C78.4054 40.3571 77.8929 38.3785 77.4817 36.4662C77.0288 34.3247 76.6951 32.2374 76.5342 30.2467C76.5044 29.7521 76.4746 29.2574 76.4508 28.7748C76.4508 28.2922 76.4329 27.8156 76.4448 27.3451C76.4686 26.398 76.5104 25.4751 76.5938 24.5883C76.7547 22.8147 77.0467 21.186 77.4221 19.7261C77.9644 17.6329 78.6974 15.9196 79.4125 14.5925C80.5567 12.638 81.8081 11.5883 82.1537 11.2083C82.5649 10.7498 82.8092 10.0561 82.41 9.75448C82.0345 9.46492 81.4684 9.5735 80.95 10.2431C80.4554 10.8825 77.9763 15.1777 76.4865 19.4004C75.9681 20.8723 75.6701 22.5795 75.4437 24.4013C75.3304 25.3122 75.2589 26.2593 75.2112 27.2365C75.1814 27.7252 75.1934 28.2259 75.1874 28.7326C75.1874 29.2393 75.2232 29.7521 75.241 30.2709Z" fill="#FAA41A"/>
<path d="M57.9832 20.8361C60.5397 24.2444 62.542 28.618 63.3226 33.4681C63.7696 33.3293 64.2165 33.1906 64.6754 33.0639C63.8411 28.069 61.7255 23.5748 59.0558 20.1122C57.6554 18.2723 56.1358 16.6858 54.6102 15.3345C53.8415 14.689 53.0906 14.0677 52.3815 13.4584C50.7844 12.089 49.8369 11.1962 48.4961 9.04265C46.8096 6.33408 47.1016 4.53641 47.334 3.1972C47.5486 1.95452 46.8931 1.47795 46.5534 1.50811C46.0647 1.55034 45.5105 1.8218 45.6595 3.36008C45.8025 4.832 46.2852 6.69603 47.5962 9.15727C48.1624 10.219 49.8905 12.7104 51.6247 14.2426C52.3457 14.8821 53.0489 15.5094 53.7879 16.1609C55.23 17.5122 56.6662 19.0565 57.9832 20.8421V20.8361Z" fill="#FAA41A"/>
<path d="M57.7925 99.4993C54.8129 98.4678 53.0787 96.9355 52.7331 92.2061C52.3577 87.0604 52.453 82.4757 52.4292 81.0641C52.3696 77.4266 52.2087 71.8948 51.6843 69.1922C51.1658 66.4897 50.3136 63.8958 49.241 61.5129C48.1624 59.1301 46.9288 56.9403 45.737 54.835C45.141 53.7854 44.557 52.7538 43.979 51.7343C43.4188 50.7148 42.8646 49.7135 42.3462 48.7121C41.3033 46.7214 40.3618 44.7668 39.5453 42.8546C38.723 40.9423 38.0555 39.0662 37.5192 37.2504C37.2391 36.3455 37.0306 35.4407 36.822 34.566C36.7326 34.1256 36.6492 33.6913 36.5657 33.2569C36.5181 33.0398 36.4883 32.8286 36.4585 32.6114C36.4287 32.4003 36.3989 32.1831 36.3631 31.978C36.3333 31.7669 36.2976 31.5558 36.2737 31.3507C36.2082 30.8741 36.0056 28.7326 36.0592 27.315C35.6957 27.0133 35.3322 26.7238 34.9627 26.4463C34.9031 27.2305 34.9031 28.63 34.9091 29.4565C34.9091 29.8727 35.0104 31.2662 35.0879 32.0203C35.2785 33.7757 35.6301 35.6156 36.1307 37.5038C37.1199 41.2982 38.7706 45.2615 40.8147 49.3394C41.0709 49.8462 43.5559 54.4972 44.1399 55.5589C45.3019 57.6703 46.4819 59.8359 47.5009 62.1162C48.5199 64.3965 49.2946 66.8215 49.7892 69.3793C50.2839 71.937 50.4328 73.988 50.5937 77.3662C50.8738 83.3323 50.6772 90.4446 50.6176 92.3508C50.558 94.2571 50.701 96.5313 49.7714 96.5494C48.943 96.5675 48.8954 95.6446 48.9609 93.3824C48.9907 92.2905 49.0562 90.8307 49.0682 89.6845C49.0801 88.5383 49.4972 80.4669 49.2291 76.0089C49.0503 73.2883 48.7583 70.6099 48.1564 68.028C47.5724 65.4461 46.7083 62.9607 45.5403 60.6925C45.1113 59.854 44.6405 59.0517 44.1459 58.2795C36.083 44.3023 33.163 35.1511 33.6576 25.4992C33.2345 25.2217 32.8174 24.9563 32.3943 24.7029C31.8997 32.0082 33.2465 38.9274 37.1319 47.6081C35.6301 46.1181 31.8103 44.8513 30.684 44.5135C28.5864 43.874 26.0775 43.3432 24.2242 43.1019C22.5437 39.6815 20.2613 36.7678 17.7883 34.5358C15.7919 32.7321 13.5632 31.6221 13.444 31.5618C14.3855 29.746 14.8682 27.8036 14.9636 26.018C15.0172 25.0829 14.9755 24.1901 14.8682 23.3637C14.7073 20.9688 13.4678 17.7234 12.9673 16.728C12.4548 15.7145 11.6264 15.618 11.3702 15.8955C11.1139 16.173 11.2212 16.9693 11.7754 17.5544C12.2939 18.0974 13.4321 20.1786 13.8254 21.8073C14.0459 23.0198 14.171 24.4194 14.0459 25.9215C13.9148 27.6045 13.438 29.4082 12.5441 31.1094C12.2998 30.9948 11.7635 30.7595 11.7397 30.7474C12.3177 29.4082 12.6514 28.0388 12.7706 26.76C12.8719 25.6802 12.8361 24.6788 12.7229 23.786C12.568 22.1934 12.3535 20.6612 12.0972 20.1062C11.7814 19.4064 11.0782 18.8575 10.6491 19.0988C10.2201 19.34 10.5299 20.3595 10.7385 20.7878C11.0961 21.5178 11.8052 22.3201 11.8886 23.1948C11.9721 24.0695 12.0197 25.3725 11.8588 26.6393C11.7039 27.8398 11.3702 29.1187 10.816 30.3734C10.5359 30.2588 9.98764 30.0356 9.98764 30.0356C9.98764 30.0235 10.3929 29.0221 10.4703 28.7446C10.6253 28.1836 10.7266 27.6347 10.7683 27.1038C11.0007 24.2625 10.0353 22.0667 9.79099 21.6746C9.37384 20.8964 8.81964 20.7275 8.58127 20.9025C8.28927 21.1136 8.38461 21.8013 8.78388 22.2055C9.12952 22.5553 10.3392 23.4421 10.0413 27.0073C9.99956 27.4959 9.73736 28.9739 9.26062 29.7038C6.10223 28.2801 5.50631 26.8565 5.16664 25.7405C4.96998 25.089 4.46941 24.6727 4.03439 24.7934C3.5219 24.9321 3.43251 25.7345 3.88541 26.4342C4.43366 27.2788 6.00689 29.2815 9.51091 30.7655C11.2808 31.5135 11.8112 31.6945 13.2712 32.6114C14.5047 33.3836 15.8038 34.2523 17.0195 35.3502C18.2352 36.4421 19.4092 37.7209 20.458 39.1687C21.3102 40.333 22.0908 41.5998 22.794 42.9511C22.4305 42.9149 22.0729 42.8847 21.7154 42.8606C21.3399 42.2211 20.9526 41.6119 20.5474 41.0147C20.0885 40.339 19.6177 39.6815 19.1291 39.0541C18.6404 38.4267 18.1339 37.8356 17.6154 37.2625C16.8765 36.4481 16.2627 35.9293 15.9826 35.694C13.1162 33.2871 10.3452 32.2012 7.03187 31.2903C4.49325 30.5906 3.92116 29.2876 3.73047 28.998C3.18818 28.1897 2.59822 27.9785 2.28834 28.2319C1.89503 28.5516 2.13936 29.3841 2.59226 29.9089C3.11071 30.5001 4.04631 31.0973 5.48248 31.5618C6.91865 32.0263 7.93171 32.3279 8.92094 32.714C10.8815 33.4982 13.146 34.6745 15.2318 36.5205C16.2746 37.4314 17.24 38.5353 18.1696 39.7539C18.8907 40.701 19.5939 41.7265 20.2554 42.7882C20.1898 42.7882 19.3138 42.7882 19.0576 42.7761C19.0576 42.7761 18.3901 41.5636 18.0743 41.1112C17.6333 40.4898 17.2043 39.8806 16.7335 39.3316C15.7979 38.2277 14.7789 37.3047 13.7658 36.5144C11.9482 35.0908 9.76119 33.9929 7.27024 33.4379C6.14991 33.1906 4.15953 32.8527 3.4921 32.2797C2.68165 31.5799 1.71625 31.3929 1.44213 31.8996C1.16801 32.4063 1.56131 33.1001 2.38964 33.4982C3.41463 33.9989 5.15472 33.4439 9.12356 34.8314C10.2379 35.2175 11.3523 35.8026 13.1758 37.2564C14.1293 38.0165 15.053 38.9395 15.9111 40.0072C16.3461 40.5381 16.7514 41.1172 17.1387 41.7205C17.234 41.8713 17.681 42.571 17.9492 43.1501C18.0326 43.3251 18.2531 43.8137 18.3246 43.9706C18.9622 43.9706 20.9466 44.0369 21.4115 44.0671C22.353 44.1455 23.3065 44.2601 24.2778 44.4049C26.2205 44.7065 28.2169 45.171 30.2251 45.7984C31.5421 46.2086 34.4919 47.4091 35.9877 48.507C37.257 49.442 38.2999 50.6967 39.0686 52.1325C39.0269 52.0963 37.4239 50.7148 36.2141 49.9005C34.337 48.6397 32.3585 47.7227 30.4099 47.023C29.4385 46.6671 28.4612 46.3835 27.5077 46.1362C26.5543 45.8889 25.6067 45.6838 24.6831 45.5149C22.5497 45.1288 20.5295 44.9116 18.6345 44.7668C18.7834 45.1469 18.9384 45.5571 19.0695 45.9552C20.7381 46.1362 22.496 46.3835 24.3196 46.7515C25.2134 46.9265 26.1192 47.1497 27.037 47.397C27.9547 47.6504 28.8784 47.9399 29.808 48.2898C30.7317 48.6336 31.6613 49.0318 32.579 49.4903C33.4908 49.9548 34.3966 50.4735 35.2726 51.0708C37.0306 52.2531 38.6574 53.7311 40.0817 55.4925C41.5357 57.2661 42.9004 59.1844 43.985 61.3199C45.0755 63.4494 45.88 65.7839 46.4402 68.2452C46.5653 68.8665 47.1076 71.7319 47.3042 73.97C47.334 74.2957 47.4353 75.6108 47.4532 75.9426C47.7273 80.7625 47.5545 85.7755 47.1672 90.891C46.9944 92.5258 46.6726 94.3536 46.0468 96.1091C45.3913 97.949 42.8527 98.5401 41.9171 99.1313C41.7443 99.2399 41.637 99.6742 41.8337 99.7346C42.513 99.9517 43.9492 100.223 45.5046 99.626C47.5784 98.8297 49.6045 98.9865 51.1599 98.8538C52.7092 98.7211 55.1883 99.9517 56.5172 99.9698C57.1846 99.9759 57.5779 99.8854 57.8044 99.7949C57.9355 99.7406 57.9534 99.5295 57.8163 99.4872L57.7925 99.4993Z" fill="#FAA41A"/>
<path d="M87.3085 13.4041C86.9628 13.374 86.5338 13.748 86.5695 14.7433C86.5993 15.7688 86.8973 17.5363 86.3252 19.6658C85.4373 22.9836 83.0893 27.4477 79.6688 30.295C78.7808 31.0309 77.8154 31.7186 76.7607 32.3038C76.8202 32.7502 76.8858 33.1966 76.9573 33.649C78.2743 32.9493 80.1872 31.5196 82.118 29.6616C84.1024 27.7553 86.3192 23.0862 86.8615 20.9507C87.3263 19.1168 87.9282 15.4974 87.9521 14.9002C87.9878 13.9108 87.6541 13.4343 87.3085 13.4041Z" fill="#00A8D5"/>
<path d="M98.1959 20.0881C97.8443 20.0036 97.5285 20.3595 97.3855 21.3127C97.2425 22.2658 97.6358 26.6755 91.5097 33.0217L91.4799 33.0699C90.7469 33.7878 89.9365 34.5056 89.0664 35.2476C87.9461 36.2068 85.4671 37.9683 85.1035 38.2156C83.6316 39.1989 82.0822 40.2365 80.4494 41.3283C78.8225 42.4323 77.1122 43.5785 75.3602 44.8332C74.4783 45.4485 73.6023 46.1181 72.7024 46.7877C72.2614 47.1316 71.8145 47.4815 71.3616 47.8374C70.9087 48.1872 70.4737 48.5673 70.0208 48.9413C68.233 50.4494 66.4631 52.1204 64.7945 53.9905C63.2034 55.764 61.7077 57.7246 60.3311 59.8178C59.1988 56.8378 57.709 54.1775 56.261 51.5956C53.472 46.6188 51.0645 42.3237 51.4042 36.1163C51.6068 32.4606 53.4363 30.0115 56.1656 27.5804C56.1477 27.5502 56.1358 27.514 56.1179 27.4839C55.9928 27.2365 55.8676 26.9892 55.7425 26.7419C55.6769 26.6212 55.6174 26.4945 55.5518 26.3739L55.4326 26.1688C52.6616 28.5818 50.123 31.4713 49.8727 36.0258C49.5092 42.6856 52.018 47.1678 54.9261 52.3557C56.5172 55.197 58.1619 58.1348 59.2823 61.4466C59.2048 61.5733 59.1273 61.6999 59.0499 61.8266C58.877 62.1101 58.6983 62.3997 58.5254 62.6832C58.5135 62.7074 58.5016 62.7315 58.4897 62.7496C57.3813 59.0215 55.6948 55.9993 53.919 52.8383L53.8653 52.7417C50.987 47.6081 48.2696 42.758 48.657 35.7363C48.9073 31.1154 51.2254 28.262 54.8844 25.2157C54.7652 25.0166 54.6341 24.8236 54.5149 24.6305C54.3659 24.4073 54.2348 24.1781 54.0799 23.9669C54.068 23.9488 54.056 23.9368 54.0441 23.9187C50.85 26.5549 47.4473 29.8606 47.1314 35.6518C46.7262 43.126 49.5509 48.1691 52.5364 53.5079L52.5901 53.6044C54.5566 57.1153 56.4159 60.4392 57.4349 64.7282C57.0118 65.5848 56.6245 66.4595 56.2788 67.3644C55.2598 69.9825 54.5685 72.7876 54.1991 75.6771C53.8534 78.3676 53.7819 81.1244 53.9071 83.8994C53.9249 86.4813 54.2169 91.6028 54.9022 94.239C55.4028 96.1815 56.0941 96.7123 56.9284 96.6701C57.4826 96.6399 57.6673 95.8195 57.1429 94.4863C56.3086 92.3569 56.0524 90.9694 55.7365 84.6052C55.5935 81.7096 55.5935 78.8562 55.9272 76.0873C56.255 73.3245 56.8867 70.6521 57.8163 68.1547C58.2811 66.906 58.8175 65.7055 59.4253 64.5533C59.7352 63.9862 60.045 63.4192 60.3907 62.8582C60.7304 62.3032 61.0522 61.7361 61.4038 61.1992C62.7744 59.0155 64.2761 57.0127 65.8612 55.1789C67.4464 53.345 69.1388 51.6981 70.8551 50.1961C72.5713 48.6879 74.3352 47.3427 76.0455 46.0638C77.7558 44.7849 79.4423 43.6086 81.0453 42.4685C82.6543 41.3344 84.1918 40.2606 85.6399 39.2411C86.3609 38.7103 87.076 38.2035 87.7316 37.6666C88.9592 36.6532 90.0557 35.694 91.0568 34.753C98.0529 28.1957 98.5356 22.6639 98.619 22.1753C98.8097 21.0352 98.625 20.1846 98.1781 20.076L98.1959 20.0881Z" fill="#00A8D5"/>
<path d="M73.9837 37.9381C74.1028 38.5172 74.222 39.1084 74.3472 39.6996C74.4842 40.2847 74.6153 40.8819 74.7643 41.4792C74.9193 42.0703 75.5926 44.61 75.5926 44.61L75.6105 44.6824C76.0217 44.3928 76.4269 44.1033 76.8262 43.8198C76.7487 43.5362 76.2839 41.7928 76.129 41.2077C75.98 40.6226 75.8489 40.0434 75.7118 39.4643C75.5867 38.8852 75.4615 38.3121 75.3424 37.739C74.8835 35.4588 74.5617 33.2328 74.4008 31.1094C74.2399 28.9859 74.2399 26.959 74.371 25.0709C74.5021 23.1827 74.7643 21.4333 75.0802 19.8528C75.5271 17.7053 75.694 17.295 76.6236 14.3995C77.5592 11.4979 78.7034 10.9067 79.1861 10.0139C79.4602 9.50112 79.6747 8.70483 79.2635 8.40321C78.8464 8.10762 78.1849 8.59625 77.8274 9.27188C77.4698 9.94752 75.3006 15.1234 74.1326 19.5813C73.7155 21.1799 73.4116 22.9716 73.2209 24.914C73.0302 26.8565 72.9825 28.9437 73.1136 31.1335C73.2388 33.3233 73.5367 35.6096 73.9837 37.9441V37.9381Z" fill="#00A8D5"/>
<path d="M66.3916 38.9274C66.04 45.4545 63.3226 52.6392 59.3359 57.4591C59.5683 57.9659 59.7948 58.4846 60.0093 59.0095L60.4682 58.5027L60.486 58.4786C64.7767 53.3088 67.6728 45.5209 67.935 38.5414C67.4047 38.662 66.8862 38.7887 66.3916 38.9274Z" fill="#00A8D5"/>
<path d="M69.0792 34.4815C58.7936 36.5989 53.9369 40.4174 52.0478 42.3539C52.1789 42.8546 52.3279 43.3432 52.4947 43.8258C53.6985 42.4383 58.1977 38.113 69.1746 35.8147C69.1388 35.3683 69.109 34.9219 69.0792 34.4815Z" fill="#00A8D5"/>
<path d="M52.7808 12.0408C53.0549 12.3122 53.3588 12.5716 53.6568 12.8431C54.2527 13.374 56.2669 15.1294 57.4111 16.4203C58.6446 17.8078 59.9318 19.322 61.0581 21.0774C62.1904 22.8268 63.2154 24.7693 64.0198 26.8866C64.1212 27.1521 64.6813 28.7145 65.0806 30.1743C65.313 31.0309 65.4918 31.9117 65.6408 32.8045C66.0877 32.6899 66.5406 32.5753 66.9995 32.4667C66.8445 31.592 66.6598 30.7354 66.4452 29.8908C66.2724 29.2996 65.9447 28.1173 65.6408 27.2908C64.6634 24.6305 63.3345 22.2899 63.0545 21.8073C62.7565 21.3368 62.4705 20.8663 62.1725 20.4138C60.9687 18.6041 59.6339 17.0296 58.293 15.6542C57.6375 14.9484 56.9343 14.3452 56.2848 13.7359C55.9511 13.4403 55.6114 13.1688 55.2836 12.8974C54.9618 12.632 54.64 12.3665 54.3302 12.1132C53.7044 11.6185 53.1383 11.1178 52.6318 10.6171C53.3111 8.93407 53.8832 6.23756 53.8415 4.93455C53.7998 3.63757 53.3946 2.90764 52.8404 3.02829C52.2325 3.16101 52.0239 4.1081 52.3994 5.09742C52.6556 5.76099 52.8761 6.6538 52.6675 7.5285C52.3517 8.86771 52.0001 9.6459 51.8988 9.85703C49.7416 7.16656 50.0574 5.83338 50.1051 5.14568C50.1706 4.16843 49.7118 3.1791 49.1039 3.25753C48.365 3.34801 48.1862 4.53037 48.4782 5.78512C48.7345 6.90113 49.968 8.82548 51.2075 10.3336C51.2314 10.3638 51.7379 10.961 51.9822 11.2385C52.2385 11.4979 52.5066 11.7693 52.7748 12.0468L52.7808 12.0408Z" fill="#00A8D5"/>
<path d="M71.9396 6.10485C71.6834 5.85148 70.8908 5.92387 70.2353 6.90716C69.5798 7.89045 68.5965 10.78 68.2747 11.6306C68.1973 11.8176 68.1138 12.0106 68.0244 12.2037C67.4345 13.5067 66.6657 15.0208 65.5275 16.4988C64.9674 17.2408 64.3238 17.9827 63.6027 18.6885C63.2452 19.0445 62.8697 19.3943 62.4705 19.7261C62.3096 19.8588 62.1427 19.9976 61.9699 20.1303C62.0354 20.2268 62.101 20.3173 62.1665 20.4138C62.3215 20.6551 62.4764 20.8964 62.6314 21.1438C62.828 20.9869 63.0247 20.8361 63.2154 20.6732C63.6385 20.3173 64.0377 19.9373 64.4132 19.5572C65.164 18.7911 65.8255 17.9948 66.3976 17.1925C67.5358 15.612 68.2688 13.9953 68.7693 12.6259V12.638C68.7991 12.5535 68.8289 12.4751 68.8528 12.3967C68.9302 12.1735 69.0018 11.9624 69.0733 11.7512C69.7288 9.94752 70.5273 8.71087 71.6536 7.57676C72.2436 6.98558 72.184 6.37631 71.9277 6.12294L71.9396 6.10485Z" fill="#00A8D5"/>
<path d="M67.6907 4.61483C67.1127 4.71738 66.9697 5.87561 66.9697 6.68396C66.9697 7.35959 66.9995 8.32479 66.6598 9.45286C66.475 9.97768 66.2426 10.5809 65.9387 11.2505C65.4203 12.3967 64.6992 13.7118 63.7159 15.0389C62.8816 16.167 61.8567 17.295 60.6648 18.3387C60.9151 18.6523 61.1535 18.9721 61.3978 19.2978C62.6731 18.1758 63.7517 16.9452 64.5979 15.7085C65.5394 14.3391 66.2069 12.9758 66.6479 11.7754C67.1723 10.4965 68.1198 8.20414 68.4118 6.79254C68.7038 5.38095 68.1198 4.53641 67.6848 4.61483H67.6907Z" fill="#00A8D5"/>
<path d="M28.056 36.0801C25.7557 35.8871 23.6879 35.5372 22.2338 35.0063C20.7798 34.4755 19.6118 33.6008 19.2363 33.1845C18.7834 32.6778 17.9253 31.972 17.4009 32.527C16.948 33.0036 17.6452 33.9084 18.4497 34.3488C18.9801 34.6384 22.9847 36.5929 28.3182 37.3107C28.2169 36.8764 28.1335 36.4602 28.056 36.0801Z" fill="#00A8D5"/>
<path d="M27.6984 33.9326C27.6865 33.836 27.6746 33.7395 27.6627 33.643C24.8618 33.2087 22.3888 32.5632 20.6844 31.7367C19.6654 31.1576 19.0218 30.2709 18.5868 29.4022C18.1696 28.5757 17.395 28.3043 17.0255 28.624C16.5845 29.004 16.7752 29.8305 17.3711 30.4277C17.967 31.0249 19.6237 32.1047 20.1004 32.4003C21.9418 33.5525 24.7188 34.4152 27.8474 34.8917C27.7878 34.5237 27.7401 34.198 27.7044 33.9265L27.6984 33.9326Z" fill="#00A8D5"/>
<path d="M27.466 31.5377C25.8928 31.2662 24.4209 30.8741 23.1694 30.3071C22.4126 29.9692 21.7392 29.5651 21.1731 29.1187C20.601 28.6723 20.1302 28.1836 19.8084 27.6648C18.9682 26.3377 19.0218 24.8658 19.1946 24.2022C19.427 23.3154 19.4628 22.7484 19.0039 22.6277C18.5451 22.5071 17.8776 23.2611 17.9551 24.5219C18.0266 25.6802 18.4855 27.1943 19.0814 28.1052C19.4628 28.6904 19.9097 29.3298 20.5235 29.8787C21.1373 30.4217 21.8703 30.9103 22.6867 31.3084C24.1289 32.0263 25.8034 32.4908 27.5733 32.7864C27.5316 32.3702 27.4958 31.9539 27.472 31.5377H27.466Z" fill="#00A8D5"/>
<path d="M36.4466 32.6175C36.4764 32.8286 36.5061 33.0458 36.5538 33.263C36.5657 33.3293 36.5836 33.4017 36.5955 33.4681C38.9613 33.6309 40.6121 34.1196 41.7026 34.6022C41.7383 34.1618 41.7801 33.7335 41.8396 33.3112C41.8039 33.269 41.7741 33.2268 41.7383 33.1845C40.4988 32.7019 38.7468 32.2555 36.3691 32.1228C36.3929 32.2857 36.4168 32.4546 36.4406 32.6175H36.4466Z" fill="#00A8D5"/>
<path d="M36.8101 34.566C36.9054 34.9701 37.0067 35.3803 37.108 35.7906C39.6169 36.0922 41.0113 36.7196 41.6132 37.0574C41.6132 36.5748 41.6132 36.0861 41.637 35.5915C40.6955 35.1632 39.1401 34.6565 36.7803 34.4212C36.7922 34.4694 36.7982 34.5177 36.8101 34.566Z" fill="#00A8D5"/>
<path d="M37.5133 37.2504C37.6146 37.5943 37.7278 37.9381 37.8351 38.288C39.7539 38.7465 41.1305 39.4342 41.7562 39.7901C41.7085 39.2833 41.6668 38.7706 41.643 38.2397C40.6895 37.7813 39.2355 37.1961 37.3881 36.8342C37.4298 36.9729 37.4656 37.1117 37.5073 37.2504H37.5133Z" fill="#00A8D5"/>
</g>
<defs>
<clipPath id="clip0_1_272">
<rect width="109" height="100" fill="white"/>
</clipPath>
</defs>
</svg>
